<mxfile host="app.diagrams.net" agent="Mozilla/5.0 (Windows NT 10.0; Win64; x64) AppleWebKit/537.36 (KHTML, like Gecko) Chrome/133.0.0.0 Safari/537.36 Edg/133.0.0.0" version="26.1.1">
  <diagram name="Page-1" id="yvomO6EJj_uZsL-eXXg1">
    <mxGraphModel dx="1042" dy="613" grid="1" gridSize="10" guides="1" tooltips="1" connect="1" arrows="1" fold="1" page="1" pageScale="1" pageWidth="850" pageHeight="1100" math="0" shadow="0">
      <root>
        <mxCell id="0" />
        <mxCell id="1" parent="0" />
        <mxCell id="xrJmwcRLbOB11xtslIuc-1" value="" style="sketch=0;aspect=fixed;pointerEvents=1;shadow=0;dashed=0;html=1;strokeColor=none;labelPosition=center;verticalLabelPosition=bottom;verticalAlign=top;align=center;fillColor=#00188D;shape=mxgraph.azure.laptop" vertex="1" parent="1">
          <mxGeometry x="60" y="30" width="183.33" height="110" as="geometry" />
        </mxCell>
        <mxCell id="xrJmwcRLbOB11xtslIuc-2" value="" style="pointerEvents=1;shadow=0;dashed=0;html=1;strokeColor=none;fillColor=#4495D1;labelPosition=center;verticalLabelPosition=bottom;verticalAlign=top;align=center;outlineConnect=0;shape=mxgraph.veeam.laptop;" vertex="1" parent="1">
          <mxGeometry x="640" y="30" width="148.4" height="110" as="geometry" />
        </mxCell>
        <mxCell id="xrJmwcRLbOB11xtslIuc-3" value="" style="endArrow=classic;html=1;rounded=0;" edge="1" parent="1">
          <mxGeometry width="50" height="50" relative="1" as="geometry">
            <mxPoint x="270" y="60" as="sourcePoint" />
            <mxPoint x="620" y="60" as="targetPoint" />
          </mxGeometry>
        </mxCell>
        <mxCell id="xrJmwcRLbOB11xtslIuc-4" value="" style="endArrow=classic;html=1;rounded=0;" edge="1" parent="1">
          <mxGeometry width="50" height="50" relative="1" as="geometry">
            <mxPoint x="620" y="90" as="sourcePoint" />
            <mxPoint x="270" y="90" as="targetPoint" />
          </mxGeometry>
        </mxCell>
        <mxCell id="xrJmwcRLbOB11xtslIuc-8" value="ping windows IP" style="text;html=1;align=center;verticalAlign=middle;resizable=0;points=[];autosize=1;strokeColor=none;fillColor=none;fontSize=25;" vertex="1" parent="1">
          <mxGeometry x="340" y="20" width="200" height="40" as="geometry" />
        </mxCell>
        <mxCell id="xrJmwcRLbOB11xtslIuc-10" value="ping kali IP" style="text;html=1;align=center;verticalAlign=middle;resizable=0;points=[];autosize=1;strokeColor=none;fillColor=none;fontSize=25;" vertex="1" parent="1">
          <mxGeometry x="365" y="90" width="150" height="40" as="geometry" />
        </mxCell>
        <mxCell id="xrJmwcRLbOB11xtslIuc-12" value="" style="endArrow=classic;html=1;rounded=0;" edge="1" parent="1">
          <mxGeometry width="50" height="50" relative="1" as="geometry">
            <mxPoint x="151" y="145" as="sourcePoint" />
            <mxPoint x="151" y="175" as="targetPoint" />
          </mxGeometry>
        </mxCell>
        <mxCell id="xrJmwcRLbOB11xtslIuc-13" value="&lt;span style=&quot;font-size: 19px;&quot;&gt;Attacking machine (kali)&lt;/span&gt;&lt;div&gt;&lt;span style=&quot;font-size: 19px;&quot;&gt;- Tools: msfvenom &amp;amp; msfconsole&lt;/span&gt;&lt;/div&gt;" style="text;html=1;align=center;verticalAlign=middle;resizable=0;points=[];autosize=1;strokeColor=none;fillColor=none;" vertex="1" parent="1">
          <mxGeometry x="1.6599999999999966" y="174" width="300" height="60" as="geometry" />
        </mxCell>
        <mxCell id="xrJmwcRLbOB11xtslIuc-15" value="" style="edgeStyle=orthogonalEdgeStyle;rounded=0;orthogonalLoop=1;jettySize=auto;html=1;" edge="1" parent="1">
          <mxGeometry relative="1" as="geometry">
            <mxPoint x="715" y="143" as="sourcePoint" />
            <mxPoint x="715" y="180" as="targetPoint" />
            <Array as="points">
              <mxPoint x="715" y="170" />
              <mxPoint x="715" y="170" />
            </Array>
          </mxGeometry>
        </mxCell>
        <mxCell id="xrJmwcRLbOB11xtslIuc-19" value="&lt;font style=&quot;font-size: 19px;&quot;&gt;Target machine (windows)&lt;/font&gt;&lt;div&gt;&lt;span style=&quot;font-size: 19px;&quot;&gt;- Disable: defender, firewall&lt;/span&gt;&lt;/div&gt;&lt;div&gt;&lt;span style=&quot;font-size: 19px;&quot;&gt;and/or smartscreen&lt;/span&gt;&lt;/div&gt;" style="text;html=1;align=center;verticalAlign=middle;resizable=0;points=[];autosize=1;strokeColor=none;fillColor=none;" vertex="1" parent="1">
          <mxGeometry x="583" y="175" width="250" height="80" as="geometry" />
        </mxCell>
      </root>
    </mxGraphModel>
  </diagram>
</mxfile>
